<svg width="20" height="20" viewBox="0 0 20 20" fill="none" xmlns="http://www.w3.org/2000/svg">
<g clip-path="url(#clip0_2962_677)">
<path d="M9.97917 1.80119C12.6445 1.80119 12.9574 1.81308 14.0108 1.8606C14.9851 1.90416 15.5118 2.06654 15.8643 2.20515C16.3316 2.38733 16.6643 2.60119 17.0128 2.94971C17.3613 3.29822 17.5792 3.6309 17.7574 4.09822C17.892 4.4507 18.0584 4.97743 18.1019 5.95169C18.1495 7.00515 18.1613 7.31803 18.1613 9.98337C18.1613 12.6487 18.1495 12.9616 18.1019 14.0151C18.0584 14.9893 17.896 15.516 17.7574 15.8685C17.5752 16.3358 17.3613 16.6685 17.0128 17.017C16.6643 17.3656 16.3316 17.5834 15.8643 17.7616C15.5118 17.8962 14.9851 18.0626 14.0108 18.1061C12.9574 18.1537 12.6445 18.1656 9.97917 18.1656C7.31382 18.1656 7.00095 18.1537 5.94748 18.1061C4.97323 18.0626 4.44649 17.9002 4.09402 17.7616C3.62669 17.5794 3.29402 17.3656 2.9455 17.017C2.59699 16.6685 2.37917 16.3358 2.20095 15.8685C2.0663 15.516 1.89996 14.9893 1.85639 14.0151C1.80887 12.9616 1.79699 12.6487 1.79699 9.98337C1.79699 7.31803 1.80887 7.00515 1.85639 5.95169C1.89996 4.97743 2.06234 4.4507 2.20095 4.09822C2.38313 3.6309 2.59699 3.29822 2.9455 2.94971C3.29402 2.60119 3.62669 2.38337 4.09402 2.20515C4.44649 2.0705 4.97323 1.90416 5.94748 1.8606C7.00095 1.80911 7.31382 1.80119 9.97917 1.80119ZM9.97917 0.00317383C7.27026 0.00317383 6.92966 0.015055 5.86432 0.0625798C4.80293 0.110105 4.07818 0.280402 3.44451 0.525946C2.78709 0.779412 2.23263 1.12397 1.67818 1.67842C1.12372 2.23288 0.783128 2.79129 0.525702 3.44476C0.280157 4.07842 0.10986 4.80317 0.0623356 5.86852C0.0148109 6.92991 0.00292969 7.2705 0.00292969 9.97941C0.00292969 12.6883 0.0148109 13.0289 0.0623356 14.0943C0.10986 15.1557 0.280157 15.8804 0.525702 16.518C0.779167 17.1755 1.12372 17.7299 1.67818 18.2844C2.23263 18.8388 2.79105 19.1794 3.44451 19.4368C4.07818 19.6824 4.80293 19.8527 5.86828 19.9002C6.93362 19.9477 7.27026 19.9596 9.98313 19.9596C12.696 19.9596 13.0326 19.9477 14.098 19.9002C15.1594 19.8527 15.8841 19.6824 16.5217 19.4368C17.1792 19.1834 17.7336 18.8388 18.2881 18.2844C18.8425 17.7299 19.1831 17.1715 19.4406 16.518C19.6861 15.8844 19.8564 15.1596 19.9039 14.0943C19.9514 13.0289 19.9633 12.6923 19.9633 9.97941C19.9633 7.26654 19.9514 6.92991 19.9039 5.86456C19.8564 4.80317 19.6861 4.07842 19.4406 3.4408C19.1871 2.78337 18.8425 2.22892 18.2881 1.67446C17.7336 1.12001 17.1752 0.779412 16.5217 0.521986C15.8881 0.276441 15.1633 0.106144 14.098 0.0586194C13.0287 0.015055 12.6881 0.00317383 9.97917 0.00317383Z" fill="#996830"/>
<path d="M9.97915 4.85474C7.15143 4.85474 4.8544 7.14781 4.8544 9.97949C4.8544 12.8112 7.15143 15.1042 9.97915 15.1042C12.8069 15.1042 15.1039 12.8072 15.1039 9.97949C15.1039 7.15177 12.8069 4.85474 9.97915 4.85474ZM9.97915 13.3062C8.14153 13.3062 6.65242 11.8171 6.65242 9.97949C6.65242 8.14187 8.14153 6.65276 9.97915 6.65276C11.8168 6.65276 13.3059 8.14187 13.3059 9.97949C13.3059 11.8171 11.8168 13.3062 9.97915 13.3062Z" fill="#996830"/>
<path d="M15.3059 5.84887C15.9665 5.84887 16.5019 5.31338 16.5019 4.65283C16.5019 3.99227 15.9665 3.45679 15.3059 3.45679C14.6453 3.45679 14.1099 3.99227 14.1099 4.65283C14.1099 5.31338 14.6453 5.84887 15.3059 5.84887Z" fill="#996830"/>
</g>
<defs>
<clipPath id="clip0_2962_677">
<rect width="20" height="20" fill="white"/>
</clipPath>
</defs>
</svg>
