<svg width="20" height="20" viewBox="0 0 20 20" fill="none" xmlns="http://www.w3.org/2000/svg">
<path d="M20 3.01257C19.251 3.35942 18.4567 3.58713 17.6433 3.68814C18.4893 3.15644 19.14 2.31618 19.4462 1.3135C18.6408 1.8134 17.7596 2.1656 16.8407 2.35488C16.0652 1.48862 14.9807 0.997946 13.8461 1.00001C11.581 1.00001 9.74264 2.92101 9.74264 5.29071C9.74264 5.62743 9.77888 5.9556 9.84982 6.26896C6.43921 6.08973 3.41648 4.38212 1.39232 1.78555C1.03888 2.41854 0.837278 3.15644 0.837278 3.94304C0.837278 5.43111 1.56138 6.74474 2.66214 7.5144C2.01042 7.49351 1.37299 7.30944 0.803338 6.97763V7.03235C0.803338 9.11084 2.21786 10.8453 4.09401 11.2403C3.48977 11.4114 2.85622 11.4365 2.24133 11.3137C2.76371 13.0188 4.27954 14.2591 6.07429 14.2952C4.67023 15.4443 2.90125 16.1316 0.978398 16.1316C0.651435 16.1312 0.324763 16.1111 0 16.0715C1.81568 17.2887 3.97292 18 6.28992 18C13.8372 18 17.9636 11.46 17.9636 5.78851C17.9636 5.603 17.9636 5.4175 17.9508 5.23332C18.7538 4.6257 19.4472 3.87378 19.9987 3.01257H20Z" fill="#996830"/>
</svg>
